HIERARCHY
ROOT Hips
{
	OFFSET -0.001795 -0.223333 0.028219
	CHANNELS 6 Xposition Yposition Zposition Zrotation Yrotation Xrotation 
	JOINT LeftUpLeg
	{
		OFFSET 0.069520 -0.091406 -0.006815
		CHANNELS 3 Zrotation Yrotation Xrotation
		JOINT LeftLeg
		{
			OFFSET 0.034277 -0.375199 -0.004496
			CHANNELS 3 Zrotation Yrotation Xrotation
			JOINT LeftFoot
			{
				OFFSET -0.013596 -0.397961 -0.043693
				CHANNELS 3 Zrotation Yrotation Xrotation
				JOINT LeftToe
				{
					OFFSET 0.026358 -0.055791 0.119288
					CHANNELS 3 Zrotation Yrotation Xrotation
					End Site
					{
						OFFSET 0.000000 0.000000 0.000000
					}
				}
			}
		}
	}
	JOINT RightUpLeg
	{
		OFFSET -0.067670 -0.090522 -0.004320
		CHANNELS 3 Zrotation Yrotation Xrotation
		JOINT RightLeg
		{
			OFFSET -0.038290 -0.382569 -0.008850
			CHANNELS 3 Zrotation Yrotation Xrotation
			JOINT RightFoot
			{
				OFFSET 0.015774 -0.398415 -0.042312
				CHANNELS 3 Zrotation Yrotation Xrotation
				JOINT RightToe
				{
					OFFSET -0.025372 -0.048144 0.123348
					CHANNELS 3 Zrotation Yrotation Xrotation
					End Site
					{
						OFFSET 0.000000 0.000000 0.000000
					}
				}
			}
		}
	}
	JOINT Spine
	{
		OFFSET -0.002533 0.108963 -0.026696
		CHANNELS 3 Zrotation Yrotation Xrotation
		JOINT Spine1
		{
			OFFSET 0.005487 0.135180 0.001092
			CHANNELS 3 Zrotation Yrotation Xrotation
			JOINT Spine2
			{
				OFFSET 0.001457 0.052922 0.025425
				CHANNELS 3 Zrotation Yrotation Xrotation
				JOINT Neck
				{
					OFFSET -0.002778 0.213870 -0.042857
					CHANNELS 3 Zrotation Yrotation Xrotation
					JOINT Head
					{
						OFFSET 0.005152 0.064970 0.051349
						CHANNELS 3 Zrotation Yrotation Xrotation
						End Site
						{
							OFFSET 0.000000 0.000000 0.000000
						}
					}
				}
				JOINT LeftShoulder
				{
					OFFSET 0.078845 0.121749 -0.034090
					CHANNELS 3 Zrotation Yrotation Xrotation
					JOINT LeftArm
					{
						OFFSET 0.090977 0.030469 -0.008868
						CHANNELS 3 Zrotation Yrotation Xrotation
						JOINT LeftForeArm
						{
							OFFSET 0.259612 -0.012772 -0.027456
							CHANNELS 3 Zrotation Yrotation Xrotation
							JOINT LeftHand
							{
								OFFSET 0.249234 0.008986 -0.001171
								CHANNELS 3 Zrotation Yrotation Xrotation
								End Site
								{
									OFFSET 0.000000 0.000000 0.000000
								}
							}
						}
					}
				}
				JOINT RightShoulder
				{
					OFFSET -0.081759 0.118833 -0.038615
					CHANNELS 3 Zrotation Yrotation Xrotation
					JOINT RightArm
					{
						OFFSET -0.096012 0.032551 -0.009143
						CHANNELS 3 Zrotation Yrotation Xrotation
						JOINT RightForeArm
						{
							OFFSET -0.253742 -0.013329 -0.021401
							CHANNELS 3 Zrotation Yrotation Xrotation
							JOINT RightHand
							{
								OFFSET -0.255298 0.007772 -0.005559
								CHANNELS 3 Zrotation Yrotation Xrotation
								End Site
								{
									OFFSET 0.000000 0.000000 0.000000
								}
							}
						}
					}
				}
			}
		}
	}
}
MOTION
Frames: 5
Frame Time: 0.050000
0.000000 0.933075 0.000000 1.260209 13.315684 -5.533601 7.570302 -0.212741 6.798518 -8.677367 0.804029 4.877783 3.960560 10.706407 7.542868 0.000000 0.000000 0.000000 -9.476262 -0.314783 0.592802 -0.346727 0.283387 10.115499 -8.038648 -18.977694 11.063664 0.000000 0.000000 0.000000 9.958628 -1.226917 8.977473 -3.987679 2.003522 -18.497537 -2.944285 -2.036002 24.909973 11.433129 -5.021931 -22.038141 0.000000 0.000000 0.000000 -13.413709 -29.822886 12.009260 -46.519529 -33.484308 5.795059 -103.465777 -65.931322 82.772652 0.000000 0.000000 0.000000 23.972918 9.208950 6.212789 50.597150 15.405131 -1.206327 11.865646 46.752029 8.232145 0.000000 0.000000 0.000000 
-0.000371 0.932878 -0.000959 1.367239 14.203063 -4.921653 7.576195 -0.242430 5.916011 -8.720571 0.784307 4.941224 3.614815 10.124020 7.371027 0.000000 0.000000 0.000000 -9.798708 -0.317651 -0.441681 0.162500 0.152654 11.122252 -8.475829 -19.704044 11.298729 0.000000 0.000000 0.000000 10.691553 -1.523595 10.162423 -4.357081 2.092949 -19.453123 -3.761569 -1.329846 24.596639 13.747276 -6.036700 -23.276943 0.000000 0.000000 0.000000 -13.742921 -30.717197 12.221852 -44.459842 -33.022070 5.299352 -108.382503 -64.557708 85.639113 0.000000 0.000000 0.000000 25.745491 8.430412 6.345051 49.876023 15.747564 -1.218893 13.423071 48.571084 9.488780 0.000000 0.000000 0.000000 
-0.000671 0.932387 -0.002399 1.220007 14.164891 -5.244039 8.094361 -0.289228 5.930847 -9.350597 0.859665 5.303681 3.624238 10.105204 7.275970 0.000000 0.000000 0.000000 -9.773705 -0.323840 -0.502117 0.359625 0.105423 11.598825 -8.434516 -19.642430 11.180458 0.000000 0.000000 0.000000 11.608393 -1.750642 10.953477 -4.802997 2.214479 -19.858167 -3.977571 -1.431143 24.547315 13.330465 -5.586801 -24.165828 0.000000 0.000000 0.000000 -14.775799 -31.243550 12.689607 -42.826968 -31.710060 4.582730 -111.034498 -64.575049 88.515459 0.000000 0.000000 0.000000 25.271883 9.208729 6.698160 49.276290 15.306547 -1.360007 14.751522 49.470325 10.224933 0.000000 0.000000 0.000000 
-0.000940 0.932798 -0.004167 1.447888 14.891877 -5.560218 8.343049 -0.322299 5.592941 -10.051326 0.940518 6.183165 3.190315 9.506287 7.503195 0.000000 0.000000 0.000000 -10.229966 -0.387798 -0.154440 0.741946 -0.003438 11.817930 -8.664745 -20.012084 11.476865 0.000000 0.000000 0.000000 11.934487 -1.988883 12.056256 -5.212953 2.322769 -20.257586 -4.160779 -1.249948 24.628739 14.644169 -6.133055 -25.052277 0.000000 0.000000 0.000000 -13.878828 -32.720751 13.086634 -43.426959 -32.019607 4.794695 -113.671764 -65.236447 91.924721 0.000000 0.000000 0.000000 25.016162 9.135025 6.828040 49.880299 16.163377 -1.036276 12.052082 49.794859 9.178795 0.000000 0.000000 0.000000 
-0.001308 0.932292 -0.005985 1.462674 15.289407 -5.748319 8.073212 -0.300576 5.264402 -9.546701 0.890655 6.833528 3.127511 9.296562 7.154225 0.000000 0.000000 0.000000 -10.289939 -0.408711 -0.210246 0.827042 -0.038755 12.266076 -8.822930 -20.286062 11.499530 0.000000 0.000000 0.000000 11.743517 -2.131381 12.968251 -5.017634 2.295548 -20.009449 -4.109370 -1.897400 24.254632 14.548514 -6.253686 -24.576030 0.000000 0.000000 0.000000 -14.214128 -32.704559 13.232256 -43.060246 -32.898581 5.099642 -113.988204 -66.720397 94.103864 0.000000 0.000000 0.000000 24.917209 9.402076 6.817833 50.363429 16.545764 -0.786201 9.097637 50.042751 7.829316 0.000000 0.000000 0.000000 
